<svg width="25" height="25" viewBox="0 0 25 25" fill="none" xmlns="http://www.w3.org/2000/svg">
<path d="M6.20831 2.51572L3.20831 6.51572V20.5157C3.20831 21.0461 3.41903 21.5549 3.7941 21.9299C4.16917 22.305 4.67788 22.5157 5.20831 22.5157H19.2083C19.7387 22.5157 20.2475 22.305 20.6225 21.9299C20.9976 21.5549 21.2083 21.0461 21.2083 20.5157V6.51572L18.2083 2.51572H6.20831Z" stroke="white" stroke-width="2" stroke-linecap="round" stroke-linejoin="round"/>
<path d="M3.20831 6.51572H21.2083" stroke="white" stroke-width="2" stroke-linecap="round" stroke-linejoin="round"/>
<path d="M16.2083 10.5157C16.2083 11.5766 15.7869 12.594 15.0367 13.3441C14.2866 14.0943 13.2692 14.5157 12.2083 14.5157C11.1474 14.5157 10.13 14.0943 9.37989 13.3441C8.62974 12.594 8.20831 11.5766 8.20831 10.5157" stroke="white" stroke-width="2" stroke-linecap="round" stroke-linejoin="round"/>
</svg>
