<svg width="25" height="25" viewBox="0 0 25 25" fill="none" xmlns="http://www.w3.org/2000/svg">
<g clip-path="url(#clip0_22_2503)">
<path d="M4.14419 6.69155L0.90155 3.44891L2.31576 2.0347L5.5584 5.27734H20.8001C21.3524 5.27734 21.8001 5.72506 21.8001 6.27734C21.8001 6.37466 21.7859 6.47147 21.758 6.56469L19.358 14.5647C19.2311 14.9877 18.8417 15.2774 18.4001 15.2774H6.14419V17.2774H17.1442V19.2774H5.14419C4.5919 19.2774 4.14419 18.8296 4.14419 18.2774V6.69155ZM5.64419 23.2774C4.81576 23.2774 4.14419 22.6058 4.14419 21.7774C4.14419 20.9489 4.81576 20.2774 5.64419 20.2774C6.47262 20.2774 7.14419 20.9489 7.14419 21.7774C7.14419 22.6058 6.47262 23.2774 5.64419 23.2774ZM17.6442 23.2774C16.8157 23.2774 16.1442 22.6058 16.1442 21.7774C16.1442 20.9489 16.8157 20.2774 17.6442 20.2774C18.4726 20.2774 19.1442 20.9489 19.1442 21.7774C19.1442 22.6058 18.4726 23.2774 17.6442 23.2774Z" fill="black"/>
</g>
<defs>
<clipPath id="clip0_22_2503">
<rect width="24" height="24" fill="white" transform="translate(0.139832 0.274689)"/>
</clipPath>
</defs>
</svg>
